<svg version="1.1"
	 xmlns="http://www.w3.org/2000/svg" xmlns:xlink="http://www.w3.org/1999/xlink" xmlns:a="http://ns.adobe.com/AdobeSVGViewerExtensions/3.0/"
	 x="0px" y="0px" width="179.2px" height="22.3px" viewBox="0 0 179.2 22.3" enable-background="new 0 0 179.2 22.3"
	 xml:space="preserve">
<defs>
</defs>
<g>
	<polygon fill="#3B4558" points="21.6,0.9 15.1,8.3 12.6,0.9 10.1,0.9 8.6,0.9 7.2,0.9 5.7,0.9 1.3,16.9 1,18.3 0,22 2.8,22 3.7,22 
		4.3,22 5.1,22 6.6,22 6.9,22 9.7,11.5 12.5,19 12.6,19 19.5,11.5 16.7,22 23.7,22 29.3,0.9 	"/>
	<path fill="#3B4558" d="M43.2,7.4c-0.7-0.7-1.6-1.2-2.6-1.6c-1-0.4-2.2-0.6-3.5-0.6c-1.4,0-2.7,0.3-3.9,0.8C32.1,6.4,31,7.1,30.1,8
		c-0.9,0.9-1.6,1.9-2,3.1c-0.5,1.2-0.7,2.4-0.7,3.6c0,1.1,0.2,2.1,0.6,3c0.4,0.9,0.9,1.7,1.6,2.4c0.7,0.7,1.6,1.2,2.6,1.6
		c1,0.4,2.2,0.6,3.5,0.6c1.4,0,2.7-0.3,3.9-0.8c1.2-0.5,2.2-1.2,3.1-2.1c0.9-0.9,1.6-1.9,2-3.1c0.5-1.2,0.7-2.4,0.7-3.6
		c0-1.1-0.2-2.1-0.6-3C44.5,8.9,43.9,8,43.2,7.4z M38.7,14.5c-0.1,0.5-0.4,0.8-0.6,1.2c-0.3,0.3-0.6,0.6-0.9,0.8
		c-0.4,0.2-0.8,0.3-1.2,0.3c-0.7,0-1.2-0.2-1.6-0.7c-0.4-0.4-0.6-1-0.6-1.7c0-0.5,0.1-0.9,0.2-1.4c0.2-0.5,0.4-0.8,0.6-1.2
		c0.3-0.3,0.6-0.6,0.9-0.8c0.4-0.2,0.8-0.3,1.2-0.3c0.7,0,1.2,0.2,1.6,0.7c0.4,0.4,0.6,1,0.6,1.7C39,13.6,38.9,14,38.7,14.5z"/>
	<path fill="#3B4558" d="M61.7,0l-2,7.6c-0.5-0.7-1.1-1.3-1.9-1.8C57,5.4,56,5.1,54.8,5.1c-1.2,0-2.3,0.3-3.4,0.8
		c-1.1,0.6-2,1.3-2.7,2.3c-0.8,1-1.4,2.1-1.8,3.4c-0.5,1.3-0.7,2.7-0.7,4.2c0,1,0.1,1.9,0.4,2.7c0.3,0.8,0.7,1.5,1.2,2
		c0.5,0.5,1.1,1,1.7,1.2c0.7,0.3,1.3,0.4,2.1,0.4c0.9,0,1.7-0.2,2.6-0.6c0.8-0.4,1.5-0.9,2.1-1.5L55.8,22h6.8l5.9-22H61.7z
		 M58.2,14.5c-0.2,0.4-0.4,0.8-0.7,1.2c-0.3,0.4-0.6,0.6-1,0.8c-0.4,0.2-0.8,0.3-1.3,0.3c-0.6,0-1.2-0.2-1.6-0.6
		c-0.4-0.4-0.6-1-0.6-1.7c0-0.5,0.1-0.9,0.2-1.4c0.2-0.4,0.4-0.8,0.7-1.2c0.3-0.4,0.6-0.6,1-0.8c0.4-0.2,0.8-0.3,1.3-0.3
		c0.6,0,1.2,0.2,1.6,0.7c0.4,0.4,0.6,1,0.6,1.7C58.4,13.5,58.3,14,58.2,14.5z"/>
	<path fill="#3B4558" d="M76.5,17.2c-0.5,0.2-1.1,0.3-1.6,0.3c-0.8,0-1.4-0.2-1.8-0.6c-0.4-0.4-0.7-0.9-0.7-1.6h10.6
		c0.2-0.5,0.3-1,0.4-1.5c0.1-0.5,0.1-1.1,0.1-1.6c0-0.9-0.1-1.7-0.4-2.6c-0.2-0.9-0.6-1.6-1.2-2.3c-0.6-0.7-1.3-1.2-2.2-1.6
		c-0.9-0.4-2.1-0.6-3.4-0.6c-1.6,0-3,0.3-4.2,0.9c-1.2,0.6-2.3,1.3-3.1,2.3c-0.9,0.9-1.5,2-2,3.2c-0.5,1.2-0.7,2.4-0.7,3.7
		c0,1.1,0.2,2.1,0.6,2.9c0.4,0.9,0.9,1.6,1.6,2.3c0.7,0.6,1.5,1.1,2.5,1.5c1,0.3,2.1,0.5,3.4,0.5c1.4,0,2.7-0.2,3.9-0.7
		c1.2-0.5,2.2-1.1,3.1-2l-3.2-3.5C77.5,16.6,77,17,76.5,17.2z M74.1,10.4c0.6-0.4,1.1-0.5,1.6-0.5c0.6,0,1,0.2,1.3,0.5
		c0.3,0.4,0.5,0.8,0.5,1.2c0,0.3,0,0.5-0.1,0.7h-4.6C73.1,11.4,73.5,10.8,74.1,10.4z"/>
	<polygon fill="#3B4558" points="88.2,0 82.3,22 89.2,22 95,0 	"/>
	<path fill="#3B4558" d="M108.7,7.4c-0.7-0.7-1.6-1.2-2.6-1.6c-1-0.4-2.2-0.6-3.5-0.6c-1.4,0-2.7,0.3-3.9,0.8
		c-1.2,0.5-2.2,1.2-3.1,2.1c-0.9,0.9-1.6,1.9-2,3.1c-0.5,1.2-0.7,2.4-0.7,3.6c0,1.1,0.2,2.1,0.6,3c0.4,0.9,0.9,1.7,1.6,2.4
		c0.7,0.7,1.6,1.2,2.6,1.6c1,0.4,2.2,0.6,3.5,0.6c1.4,0,2.7-0.3,3.9-0.8c1.2-0.5,2.2-1.2,3.1-2.1c0.9-0.9,1.6-1.9,2-3.1
		c0.5-1.2,0.7-2.4,0.7-3.6c0-1.1-0.2-2.1-0.6-3C109.9,8.9,109.4,8,108.7,7.4z M104.2,14.5c-0.2,0.5-0.4,0.8-0.6,1.2
		c-0.3,0.3-0.6,0.6-0.9,0.8c-0.4,0.2-0.8,0.3-1.2,0.3c-0.7,0-1.2-0.2-1.6-0.7c-0.4-0.4-0.6-1-0.6-1.7c0-0.5,0.1-0.9,0.2-1.4
		c0.2-0.5,0.4-0.8,0.6-1.2c0.3-0.3,0.6-0.6,0.9-0.8c0.4-0.2,0.8-0.3,1.2-0.3c0.7,0,1.2,0.2,1.6,0.7c0.4,0.4,0.6,1,0.6,1.7
		C104.4,13.6,104.3,14,104.2,14.5z"/>
	<polygon fill="#3B4558" points="129.7,0.9 126.9,10.9 122.2,0.9 115.6,0.9 109.9,22 116.9,22 119.7,11.5 124.7,22 131,22 
		136.6,0.9 	"/>
	<path fill="#3B4558" d="M150.5,7.4c-0.7-0.7-1.6-1.2-2.6-1.6c-1-0.4-2.2-0.6-3.5-0.6c-1.4,0-2.7,0.3-3.9,0.8
		c-1.2,0.5-2.2,1.2-3.1,2.1c-0.9,0.9-1.6,1.9-2,3.1c-0.5,1.2-0.7,2.4-0.7,3.6c0,1.1,0.2,2.1,0.6,3c0.4,0.9,0.9,1.7,1.6,2.4
		c0.7,0.7,1.6,1.2,2.6,1.6c1,0.4,2.2,0.6,3.5,0.6c1.4,0,2.7-0.3,3.9-0.8c1.2-0.5,2.2-1.2,3.1-2.1c0.9-0.9,1.6-1.9,2-3.1
		c0.5-1.2,0.7-2.4,0.7-3.6c0-1.1-0.2-2.1-0.6-3C151.8,8.9,151.2,8,150.5,7.4z M146,14.5c-0.2,0.5-0.4,0.8-0.6,1.2
		c-0.3,0.3-0.6,0.6-0.9,0.8c-0.4,0.2-0.8,0.3-1.2,0.3c-0.7,0-1.2-0.2-1.6-0.7c-0.4-0.4-0.6-1-0.6-1.7c0-0.5,0.1-0.9,0.2-1.4
		c0.2-0.5,0.4-0.8,0.6-1.2c0.3-0.3,0.6-0.6,0.9-0.8c0.4-0.2,0.8-0.3,1.2-0.3c0.7,0,1.2,0.2,1.6,0.7c0.4,0.4,0.6,1,0.6,1.7
		C146.3,13.6,146.2,14,146,14.5z"/>
	<polygon fill="#3B4558" points="172.6,5.5 169.1,12.2 168.9,5.5 163.5,5.5 159.7,12.1 159.8,5.5 153.4,5.5 153.9,22.1 159.7,22.1 
		163.9,15 164.2,22.1 169.8,22.1 179.2,5.5 	"/>
</g>
</svg>
